<svg xmlns="http://www.w3.org/2000/svg" width="240" height="240"><rect x="0" y="0" width="100%" height="100%" fill="rgb(22, 160, 133)"  /><g fill="#ddd" stroke="#000" stroke-opacity="0.02" style="fill-opacity:0.10666666666666667;" transform="translate(-20.0,-30.0)" ><rect x="20.0" y="0" width="20.0" height="60.0"  /><rect x="0" y="20.0" width="60.0" height="20.0"  /></g><g fill="#ddd" stroke="#000" stroke-opacity="0.02" style="fill-opacity:0.10666666666666667;" transform="translate(220.0,-30.0)" ><rect x="20.0" y="0" width="20.0" height="60.0"  /><rect x="0" y="20.0" width="60.0" height="20.0"  /></g><g fill="#ddd" stroke="#000" stroke-opacity="0.02" style="fill-opacity:0.10666666666666667;" transform="translate(-20.0,210.0)" ><rect x="20.0" y="0" width="20.0" height="60.0"  /><rect x="0" y="20.0" width="60.0" height="20.0"  /></g><g fill="#ddd" stroke="#000" stroke-opacity="0.02" style="fill-opacity:0.10666666666666667;" transform="translate(220.0,210.0)" ><rect x="20.0" y="0" width="20.0" height="60.0"  /><rect x="0" y="20.0" width="60.0" height="20.0"  /></g><g fill="#222" stroke="#000" stroke-opacity="0.02" style="fill-opacity:0.028666666666666667;" transform="translate(20.0,-30.0)" ><rect x="20.0" y="0" width="20.0" height="60.0"  /><rect x="0" y="20.0" width="60.0" height="20.0"  /></g><g fill="#222" stroke="#000" stroke-opacity="0.02" style="fill-opacity:0.028666666666666667;" transform="translate(20.0,210.0)" ><rect x="20.0" y="0" width="20.0" height="60.0"  /><rect x="0" y="20.0" width="60.0" height="20.0"  /></g><g fill="#ddd" stroke="#000" stroke-opacity="0.02" style="fill-opacity:0.08933333333333333;" transform="translate(60.0,-30.0)" ><rect x="20.0" y="0" width="20.0" height="60.0"  /><rect x="0" y="20.0" width="60.0" height="20.0"  /></g><g fill="#ddd" stroke="#000" stroke-opacity="0.02" style="fill-opacity:0.08933333333333333;" transform="translate(60.0,210.0)" ><rect x="20.0" y="0" width="20.0" height="60.0"  /><rect x="0" y="20.0" width="60.0" height="20.0"  /></g><g fill="#ddd" stroke="#000" stroke-opacity="0.02" style="fill-opacity:0.07200000000000001;" transform="translate(100.0,-30.0)" ><rect x="20.0" y="0" width="20.0" height="60.0"  /><rect x="0" y="20.0" width="60.0" height="20.0"  /></g><g fill="#ddd" stroke="#000" stroke-opacity="0.02" style="fill-opacity:0.07200000000000001;" transform="translate(100.0,210.0)" ><rect x="20.0" y="0" width="20.0" height="60.0"  /><rect x="0" y="20.0" width="60.0" height="20.0"  /></g><g fill="#222" stroke="#000" stroke-opacity="0.02" style="fill-opacity:0.028666666666666667;" transform="translate(140.0,-30.0)" ><rect x="20.0" y="0" width="20.0" height="60.0"  /><rect x="0" y="20.0" width="60.0" height="20.0"  /></g><g fill="#222" stroke="#000" stroke-opacity="0.02" style="fill-opacity:0.028666666666666667;" transform="translate(140.0,210.0)" ><rect x="20.0" y="0" width="20.0" height="60.0"  /><rect x="0" y="20.0" width="60.0" height="20.0"  /></g><g fill="#ddd" stroke="#000" stroke-opacity="0.02" style="fill-opacity:0.07200000000000001;" transform="translate(180.0,-30.0)" ><rect x="20.0" y="0" width="20.0" height="60.0"  /><rect x="0" y="20.0" width="60.0" height="20.0"  /></g><g fill="#ddd" stroke="#000" stroke-opacity="0.02" style="fill-opacity:0.07200000000000001;" transform="translate(180.0,210.0)" ><rect x="20.0" y="0" width="20.0" height="60.0"  /><rect x="0" y="20.0" width="60.0" height="20.0"  /></g><g fill="#ddd" stroke="#000" stroke-opacity="0.02" style="fill-opacity:0.10666666666666667;" transform="translate(0.0,10.0)" ><rect x="20.0" y="0" width="20.0" height="60.0"  /><rect x="0" y="20.0" width="60.0" height="20.0"  /></g><g fill="#ddd" stroke="#000" stroke-opacity="0.02" style="fill-opacity:0.10666666666666667;" transform="translate(240.0,10.0)" ><rect x="20.0" y="0" width="20.0" height="60.0"  /><rect x="0" y="20.0" width="60.0" height="20.0"  /></g><g fill="#222" stroke="#000" stroke-opacity="0.02" style="fill-opacity:0.046;" transform="translate(40.0,10.0)" ><rect x="20.0" y="0" width="20.0" height="60.0"  /><rect x="0" y="20.0" width="60.0" height="20.0"  /></g><g fill="#222" stroke="#000" stroke-opacity="0.02" style="fill-opacity:0.15;" transform="translate(80.0,10.0)" ><rect x="20.0" y="0" width="20.0" height="60.0"  /><rect x="0" y="20.0" width="60.0" height="20.0"  /></g><g fill="#222" stroke="#000" stroke-opacity="0.02" style="fill-opacity:0.028666666666666667;" transform="translate(120.0,10.0)" ><rect x="20.0" y="0" width="20.0" height="60.0"  /><rect x="0" y="20.0" width="60.0" height="20.0"  /></g><g fill="#222" stroke="#000" stroke-opacity="0.02" style="fill-opacity:0.13266666666666665;" transform="translate(160.0,10.0)" ><rect x="20.0" y="0" width="20.0" height="60.0"  /><rect x="0" y="20.0" width="60.0" height="20.0"  /></g><g fill="#222" stroke="#000" stroke-opacity="0.02" style="fill-opacity:0.046;" transform="translate(200.0,10.0)" ><rect x="20.0" y="0" width="20.0" height="60.0"  /><rect x="0" y="20.0" width="60.0" height="20.0"  /></g><g fill="#222" stroke="#000" stroke-opacity="0.02" style="fill-opacity:0.028666666666666667;" transform="translate(-20.0,50.0)" ><rect x="20.0" y="0" width="20.0" height="60.0"  /><rect x="0" y="20.0" width="60.0" height="20.0"  /></g><g fill="#222" stroke="#000" stroke-opacity="0.02" style="fill-opacity:0.028666666666666667;" transform="translate(220.0,50.0)" ><rect x="20.0" y="0" width="20.0" height="60.0"  /><rect x="0" y="20.0" width="60.0" height="20.0"  /></g><g fill="#222" stroke="#000" stroke-opacity="0.02" style="fill-opacity:0.046;" transform="translate(20.0,50.0)" ><rect x="20.0" y="0" width="20.0" height="60.0"  /><rect x="0" y="20.0" width="60.0" height="20.0"  /></g><g fill="#222" stroke="#000" stroke-opacity="0.02" style="fill-opacity:0.098;" transform="translate(60.0,50.0)" ><rect x="20.0" y="0" width="20.0" height="60.0"  /><rect x="0" y="20.0" width="60.0" height="20.0"  /></g><g fill="#222" stroke="#000" stroke-opacity="0.02" style="fill-opacity:0.028666666666666667;" transform="translate(100.0,50.0)" ><rect x="20.0" y="0" width="20.0" height="60.0"  /><rect x="0" y="20.0" width="60.0" height="20.0"  /></g><g fill="#222" stroke="#000" stroke-opacity="0.02" style="fill-opacity:0.15;" transform="translate(140.0,50.0)" ><rect x="20.0" y="0" width="20.0" height="60.0"  /><rect x="0" y="20.0" width="60.0" height="20.0"  /></g><g fill="#ddd" stroke="#000" stroke-opacity="0.02" style="fill-opacity:0.03733333333333333;" transform="translate(180.0,50.0)" ><rect x="20.0" y="0" width="20.0" height="60.0"  /><rect x="0" y="20.0" width="60.0" height="20.0"  /></g><g fill="#ddd" stroke="#000" stroke-opacity="0.02" style="fill-opacity:0.05466666666666667;" transform="translate(0.0,90.0)" ><rect x="20.0" y="0" width="20.0" height="60.0"  /><rect x="0" y="20.0" width="60.0" height="20.0"  /></g><g fill="#ddd" stroke="#000" stroke-opacity="0.02" style="fill-opacity:0.05466666666666667;" transform="translate(240.0,90.0)" ><rect x="20.0" y="0" width="20.0" height="60.0"  /><rect x="0" y="20.0" width="60.0" height="20.0"  /></g><g fill="#ddd" stroke="#000" stroke-opacity="0.02" style="fill-opacity:0.07200000000000001;" transform="translate(40.0,90.0)" ><rect x="20.0" y="0" width="20.0" height="60.0"  /><rect x="0" y="20.0" width="60.0" height="20.0"  /></g><g fill="#ddd" stroke="#000" stroke-opacity="0.02" style="fill-opacity:0.03733333333333333;" transform="translate(80.0,90.0)" ><rect x="20.0" y="0" width="20.0" height="60.0"  /><rect x="0" y="20.0" width="60.0" height="20.0"  /></g><g fill="#222" stroke="#000" stroke-opacity="0.02" style="fill-opacity:0.15;" transform="translate(120.0,90.0)" ><rect x="20.0" y="0" width="20.0" height="60.0"  /><rect x="0" y="20.0" width="60.0" height="20.0"  /></g><g fill="#222" stroke="#000" stroke-opacity="0.02" style="fill-opacity:0.13266666666666665;" transform="translate(160.0,90.0)" ><rect x="20.0" y="0" width="20.0" height="60.0"  /><rect x="0" y="20.0" width="60.0" height="20.0"  /></g><g fill="#222" stroke="#000" stroke-opacity="0.02" style="fill-opacity:0.046;" transform="translate(200.0,90.0)" ><rect x="20.0" y="0" width="20.0" height="60.0"  /><rect x="0" y="20.0" width="60.0" height="20.0"  /></g><g fill="#222" stroke="#000" stroke-opacity="0.02" style="fill-opacity:0.098;" transform="translate(-20.0,130.0)" ><rect x="20.0" y="0" width="20.0" height="60.0"  /><rect x="0" y="20.0" width="60.0" height="20.0"  /></g><g fill="#222" stroke="#000" stroke-opacity="0.02" style="fill-opacity:0.098;" transform="translate(220.0,130.0)" ><rect x="20.0" y="0" width="20.0" height="60.0"  /><rect x="0" y="20.0" width="60.0" height="20.0"  /></g><g fill="#222" stroke="#000" stroke-opacity="0.02" style="fill-opacity:0.046;" transform="translate(20.0,130.0)" ><rect x="20.0" y="0" width="20.0" height="60.0"  /><rect x="0" y="20.0" width="60.0" height="20.0"  /></g><g fill="#ddd" stroke="#000" stroke-opacity="0.02" style="fill-opacity:0.14133333333333334;" transform="translate(60.0,130.0)" ><rect x="20.0" y="0" width="20.0" height="60.0"  /><rect x="0" y="20.0" width="60.0" height="20.0"  /></g><g fill="#222" stroke="#000" stroke-opacity="0.02" style="fill-opacity:0.046;" transform="translate(100.0,130.0)" ><rect x="20.0" y="0" width="20.0" height="60.0"  /><rect x="0" y="20.0" width="60.0" height="20.0"  /></g><g fill="#ddd" stroke="#000" stroke-opacity="0.02" style="fill-opacity:0.10666666666666667;" transform="translate(140.0,130.0)" ><rect x="20.0" y="0" width="20.0" height="60.0"  /><rect x="0" y="20.0" width="60.0" height="20.0"  /></g><g fill="#222" stroke="#000" stroke-opacity="0.02" style="fill-opacity:0.06333333333333334;" transform="translate(180.0,130.0)" ><rect x="20.0" y="0" width="20.0" height="60.0"  /><rect x="0" y="20.0" width="60.0" height="20.0"  /></g><g fill="#ddd" stroke="#000" stroke-opacity="0.02" style="fill-opacity:0.03733333333333333;" transform="translate(0.0,170.0)" ><rect x="20.0" y="0" width="20.0" height="60.0"  /><rect x="0" y="20.0" width="60.0" height="20.0"  /></g><g fill="#ddd" stroke="#000" stroke-opacity="0.02" style="fill-opacity:0.03733333333333333;" transform="translate(240.0,170.0)" ><rect x="20.0" y="0" width="20.0" height="60.0"  /><rect x="0" y="20.0" width="60.0" height="20.0"  /></g><g fill="#ddd" stroke="#000" stroke-opacity="0.02" style="fill-opacity:0.05466666666666667;" transform="translate(40.0,170.0)" ><rect x="20.0" y="0" width="20.0" height="60.0"  /><rect x="0" y="20.0" width="60.0" height="20.0"  /></g><g fill="#222" stroke="#000" stroke-opacity="0.02" style="fill-opacity:0.098;" transform="translate(80.0,170.0)" ><rect x="20.0" y="0" width="20.0" height="60.0"  /><rect x="0" y="20.0" width="60.0" height="20.0"  /></g><g fill="#222" stroke="#000" stroke-opacity="0.02" style="fill-opacity:0.08066666666666666;" transform="translate(120.0,170.0)" ><rect x="20.0" y="0" width="20.0" height="60.0"  /><rect x="0" y="20.0" width="60.0" height="20.0"  /></g><g fill="#222" stroke="#000" stroke-opacity="0.02" style="fill-opacity:0.046;" transform="translate(160.0,170.0)" ><rect x="20.0" y="0" width="20.0" height="60.0"  /><rect x="0" y="20.0" width="60.0" height="20.0"  /></g><g fill="#ddd" stroke="#000" stroke-opacity="0.02" style="fill-opacity:0.07200000000000001;" transform="translate(200.0,170.0)" ><rect x="20.0" y="0" width="20.0" height="60.0"  /><rect x="0" y="20.0" width="60.0" height="20.0"  /></g></svg>
